<svg width="110" height="24" viewBox="0 0 110 24" fill="none" xmlns="http://www.w3.org/2000/svg">
<path d="M0.212393 18.7756C0.169914 19.0304 0.127436 19.4127 0.339829 20.0073C1.01949 21.8338 3.1859 22.8956 3.65316 23.108C5.43726 23.9575 7.05145 24 7.77358 24C8.11341 24 9.47273 24 11.1719 23.4478C11.8091 23.2354 12.7436 22.9381 13.7206 22.216C14.6551 21.5364 15.0374 20.8993 15.1649 20.7294C15.1649 20.7294 15.1649 20.7294 15.1649 20.6869C15.2923 20.4746 15.7171 19.795 15.5896 18.9455C15.5896 18.818 15.4197 18.011 14.7401 17.5013C14.7401 17.5013 13.5932 16.7367 12.3188 17.4163C12.2763 17.4163 12.2338 17.4588 12.2338 17.4588C12.1489 17.5438 12.0639 17.5862 12.0639 17.5862C11.9365 17.7137 11.4692 18.1384 11.4267 18.1809C11.4267 18.1809 11.1294 18.4358 10.3648 18.9455C10.2798 18.9879 10.1949 19.0729 10.1949 19.0729L10.1524 19.1154C9.93999 19.2428 9.51521 19.4552 9.00546 19.5826C8.62316 19.6675 7.81606 19.9224 6.79658 19.6675C5.947 19.4976 5.3523 19.0729 5.09743 18.903C4.71512 18.6481 4.67265 18.5207 3.82307 17.8411C3.18589 17.3314 3.05846 17.2464 2.84607 17.204C2.08145 16.9491 1.35932 17.3314 1.27436 17.4163C1.1894 17.3739 0.382307 17.8411 0.212393 18.7756Z" fill="white"/>
<path d="M15.1649 7.7314C15.1649 5.69259 15.2073 3.61131 15.2073 1.5725C15.1649 1.4026 15.0799 1.19022 14.8675 0.935369C14.7401 0.722993 14.4002 0.298241 13.8055 0.0858651C13.6781 0.0433899 13.2108 -0.0840357 12.7011 0.0858651C12.0214 0.298241 11.7241 0.892894 11.6391 1.02032C11.5117 1.2327 11.4692 1.44507 11.4692 1.5725C11.4692 1.65745 11.4692 1.7424 11.4692 1.82735C10.3223 1.14775 9.00546 0.722993 7.56119 0.722993C3.39829 0.765468 0 4.16348 0 8.36853C0 12.5736 3.39829 15.9291 7.56119 15.9291C11.7241 15.9291 15.1224 12.5311 15.1224 8.36853C15.1649 8.15615 15.1224 7.94378 15.1649 7.7314ZM7.56119 11.7665C5.64965 11.7665 4.1629 10.2374 4.1629 8.32605C4.1629 6.41467 5.69213 4.88556 7.60367 4.88556C9.51521 4.88556 11.0444 6.41467 11.0444 8.32605C11.0444 10.2374 9.47273 11.7665 7.56119 11.7665Z" fill="white"/>
<path d="M26.6707 6.77787C27.2993 6.77787 27.8519 6.9046 28.3284 7.15804C28.8049 7.40135 29.1801 7.7207 29.4538 8.11608V6.91473H31.5982V15.4002C31.5982 16.1808 31.441 16.8752 31.1267 17.4835C30.8124 18.1019 30.341 18.5886 29.7124 18.9434C29.0838 19.3084 28.3234 19.4908 27.4311 19.4908C26.2348 19.4908 25.2513 19.212 24.4808 18.6545C23.7204 18.0969 23.2895 17.3365 23.1881 16.3734H25.302C25.4135 16.7587 25.6518 17.0628 26.0168 17.2858C26.3919 17.519 26.8431 17.6356 27.3703 17.6356C27.9888 17.6356 28.4906 17.448 28.8759 17.0729C29.2612 16.708 29.4538 16.1504 29.4538 15.4002V14.0924C29.1801 14.4878 28.7999 14.8173 28.3132 15.0808C27.8367 15.3444 27.2892 15.4762 26.6707 15.4762C25.961 15.4762 25.3122 15.2937 24.7241 14.9288C24.1361 14.5638 23.6697 14.0518 23.325 13.3929C22.9904 12.7238 22.8231 11.9584 22.8231 11.0966C22.8231 10.245 22.9904 9.48977 23.325 8.8308C23.6697 8.17184 24.131 7.66494 24.7089 7.31011C25.2969 6.95529 25.9509 6.77787 26.6707 6.77787ZM29.4538 11.127C29.4538 10.61 29.3524 10.169 29.1497 9.80404C28.9469 9.42894 28.6731 9.14508 28.3284 8.95246C27.9837 8.7497 27.6136 8.64832 27.2182 8.64832C26.8228 8.64832 26.4578 8.74463 26.1232 8.93725C25.7887 9.12987 25.5149 9.41373 25.302 9.78884C25.0992 10.1538 24.9978 10.5897 24.9978 11.0966C24.9978 11.6035 25.0992 12.0496 25.302 12.4348C25.5149 12.8099 25.7887 13.0989 26.1232 13.3016C26.468 13.5044 26.833 13.6058 27.2182 13.6058C27.6136 13.6058 27.9837 13.5095 28.3284 13.3168C28.6731 13.1141 28.9469 12.8302 29.1497 12.4653C29.3524 12.0901 29.4538 11.6441 29.4538 11.127Z" fill="white"/>
<path d="M37.4188 15.4762C36.6077 15.4762 35.8777 15.2988 35.2289 14.944C34.58 14.579 34.068 14.067 33.6928 13.4081C33.3279 12.7491 33.1454 11.9888 33.1454 11.127C33.1454 10.2653 33.3329 9.50498 33.7081 8.84601C34.0933 8.18704 34.6155 7.68015 35.2745 7.32532C35.9335 6.96035 36.6686 6.77787 37.4797 6.77787C38.2908 6.77787 39.0258 6.96035 39.6848 7.32532C40.3439 7.68015 40.8609 8.18704 41.2361 8.84601C41.6213 9.50498 41.814 10.2653 41.814 11.127C41.814 11.9888 41.6163 12.7491 41.2209 13.4081C40.8356 14.067 40.3084 14.579 39.6392 14.944C38.9802 15.2988 38.2401 15.4762 37.4188 15.4762ZM37.4188 13.621C37.8041 13.621 38.164 13.5297 38.4986 13.3473C38.8433 13.1546 39.1171 12.8708 39.3199 12.4957C39.5226 12.1206 39.624 11.6644 39.624 11.127C39.624 10.3261 39.4111 9.7128 38.9853 9.28701C38.5696 8.85108 38.0576 8.63311 37.4493 8.63311C36.8409 8.63311 36.3289 8.85108 35.9132 9.28701C35.5077 9.7128 35.3049 10.3261 35.3049 11.127C35.3049 11.9279 35.5026 12.5464 35.898 12.9823C36.3036 13.4081 36.8105 13.621 37.4188 13.621Z" fill="white"/>
<path d="M47.117 15.4762C46.3059 15.4762 45.5759 15.2988 44.927 14.944C44.2781 14.579 43.7661 14.067 43.391 13.4081C43.026 12.7491 42.8435 11.9888 42.8435 11.127C42.8435 10.2653 43.0311 9.50498 43.4062 8.84601C43.7915 8.18704 44.3136 7.68015 44.9726 7.32532C45.6317 6.96035 46.3667 6.77787 47.1778 6.77787C47.9889 6.77787 48.724 6.96035 49.383 7.32532C50.042 7.68015 50.5591 8.18704 50.9342 8.84601C51.3195 9.50498 51.5121 10.2653 51.5121 11.127C51.5121 11.9888 51.3144 12.7491 50.919 13.4081C50.5337 14.067 50.0065 14.579 49.3374 14.944C48.6783 15.2988 47.9382 15.4762 47.117 15.4762ZM47.117 13.621C47.5023 13.621 47.8622 13.5297 48.1968 13.3473C48.5415 13.1546 48.8152 12.8708 49.018 12.4957C49.2208 12.1206 49.3222 11.6644 49.3222 11.127C49.3222 10.3261 49.1092 9.7128 48.6834 9.28701C48.2677 8.85108 47.7557 8.63311 47.1474 8.63311C46.5391 8.63311 46.0271 8.85108 45.6114 9.28701C45.2058 9.7128 45.0031 10.3261 45.0031 11.127C45.0031 11.9279 45.2008 12.5464 45.5962 12.9823C46.0017 13.4081 46.5087 13.621 47.117 13.621Z" fill="white"/>
<path d="M52.5264 11.0966C52.5264 10.245 52.6937 9.48977 53.0283 8.8308C53.373 8.17184 53.8394 7.66494 54.4275 7.31011C55.0155 6.95529 55.6694 6.77787 56.3893 6.77787C56.9368 6.77787 57.4589 6.89953 57.9557 7.14284C58.4525 7.37601 58.8479 7.69028 59.142 8.08566V4.08625H61.3015V15.3394H59.142V14.0924C58.8784 14.508 58.5083 14.8426 58.0318 15.096C57.5552 15.3495 57.0027 15.4762 56.3741 15.4762C55.6644 15.4762 55.0155 15.2937 54.4275 14.9288C53.8394 14.5638 53.373 14.0518 53.0283 13.3929C52.6937 12.7238 52.5264 11.9584 52.5264 11.0966ZM59.1572 11.127C59.1572 10.61 59.0558 10.169 58.853 9.80404C58.6502 9.42894 58.3765 9.14508 58.0318 8.95246C57.6871 8.7497 57.317 8.64832 56.9216 8.64832C56.5262 8.64832 56.1612 8.74463 55.8266 8.93725C55.492 9.12987 55.2183 9.41373 55.0054 9.78884C54.8026 10.1538 54.7012 10.5897 54.7012 11.0966C54.7012 11.6035 54.8026 12.0496 55.0054 12.4348C55.2183 12.8099 55.492 13.0989 55.8266 13.3016C56.1713 13.5044 56.5363 13.6058 56.9216 13.6058C57.317 13.6058 57.6871 13.5095 58.0318 13.3168C58.3765 13.1141 58.6502 12.8302 58.853 12.4653C59.0558 12.0901 59.1572 11.6441 59.1572 11.127Z" fill="white"/>
<path d="M66.6051 15.4762C65.9157 15.4762 65.2972 15.3546 64.7497 15.1113C64.2022 14.8578 63.7663 14.5182 63.4418 14.0924C63.1275 13.6666 62.9552 13.1952 62.9247 12.6781H65.0691C65.1096 13.0026 65.2668 13.2712 65.5405 13.4841C65.8244 13.697 66.1742 13.8035 66.5899 13.8035C66.9954 13.8035 67.3097 13.7224 67.5328 13.5601C67.766 13.3979 67.8826 13.1901 67.8826 12.9367C67.8826 12.6629 67.7406 12.4602 67.4568 12.3284C67.183 12.1865 66.742 12.0344 66.1337 11.8722C65.5051 11.7201 64.988 11.563 64.5824 11.4008C64.187 11.2386 63.8423 10.9902 63.5483 10.6556C63.2644 10.3211 63.1225 9.86994 63.1225 9.30222C63.1225 8.83587 63.2543 8.41008 63.5179 8.02484C63.7916 7.6396 64.1769 7.33546 64.6737 7.11242C65.1806 6.88939 65.7737 6.77787 66.453 6.77787C67.4568 6.77787 68.2577 7.03132 68.8559 7.53822C69.4541 8.03497 69.7836 8.70915 69.8444 9.56073H67.8066C67.7761 9.22618 67.6342 8.9626 67.3807 8.76998C67.1374 8.56722 66.8079 8.46584 66.3922 8.46584C66.0069 8.46584 65.7078 8.5368 65.4949 8.67873C65.2921 8.82066 65.1908 9.01835 65.1908 9.2718C65.1908 9.55566 65.3327 9.77363 65.6166 9.9257C65.9005 10.0676 66.3415 10.2146 66.9397 10.3667C67.548 10.5188 68.0499 10.6759 68.4453 10.8381C68.8407 11.0003 69.1804 11.2538 69.4642 11.5985C69.7583 11.933 69.9103 12.3791 69.9205 12.9367C69.9205 13.4233 69.7836 13.8592 69.5099 14.2445C69.2463 14.6297 68.861 14.9338 68.354 15.1569C67.8572 15.3698 67.2743 15.4762 66.6051 15.4762Z" fill="white"/>
<path d="M73.7974 8.13129C74.0711 7.74604 74.4462 7.4267 74.9228 7.17325C75.4094 6.90967 75.962 6.77787 76.5804 6.77787C77.3003 6.77787 77.9492 6.95529 78.5271 7.31011C79.1151 7.66494 79.5764 8.17184 79.911 8.8308C80.2557 9.47963 80.4281 10.2349 80.4281 11.0966C80.4281 11.9584 80.2557 12.7238 79.911 13.3929C79.5764 14.0518 79.1151 14.5638 78.5271 14.9288C77.9492 15.2937 77.3003 15.4762 76.5804 15.4762C75.962 15.4762 75.4145 15.3495 74.938 15.096C74.4716 14.8426 74.0914 14.5233 73.7974 14.138V19.354H71.6682V6.91473H73.7974V8.13129ZM78.2533 11.0966C78.2533 10.5897 78.1469 10.1538 77.934 9.78884C77.7312 9.41373 77.4574 9.12987 77.1127 8.93725C76.7782 8.74463 76.4132 8.64832 76.0177 8.64832C75.6325 8.64832 75.2675 8.7497 74.9228 8.95246C74.5882 9.14508 74.3144 9.42894 74.1015 9.80404C73.8987 10.1791 73.7974 10.6201 73.7974 11.127C73.7974 11.6339 73.8987 12.0749 74.1015 12.45C74.3144 12.8251 74.5882 13.1141 74.9228 13.3168C75.2675 13.5095 75.6325 13.6058 76.0177 13.6058C76.4132 13.6058 76.7782 13.5044 77.1127 13.3016C77.4574 13.0989 77.7312 12.8099 77.934 12.4348C78.1469 12.0597 78.2533 11.6137 78.2533 11.0966Z" fill="white"/>
<path d="M81.4278 11.0966C81.4278 10.245 81.5951 9.48977 81.9297 8.8308C82.2744 8.17184 82.7357 7.66494 83.3136 7.31011C83.9017 6.95529 84.5556 6.77787 85.2754 6.77787C85.904 6.77787 86.4515 6.9046 86.9179 7.15804C87.3944 7.41149 87.7746 7.73084 88.0585 8.11608V6.91473H90.2029V15.3394H88.0585V14.1076C87.7848 14.503 87.4046 14.8325 86.9179 15.096C86.4414 15.3495 85.8888 15.4762 85.2602 15.4762C84.5505 15.4762 83.9017 15.2937 83.3136 14.9288C82.7357 14.5638 82.2744 14.0518 81.9297 13.3929C81.5951 12.7238 81.4278 11.9584 81.4278 11.0966ZM88.0585 11.127C88.0585 10.61 87.9571 10.169 87.7544 9.80404C87.5516 9.42894 87.2778 9.14508 86.9331 8.95246C86.5884 8.7497 86.2184 8.64832 85.8229 8.64832C85.4275 8.64832 85.0625 8.74463 84.7279 8.93725C84.3934 9.12987 84.1196 9.41373 83.9067 9.78884C83.7039 10.1538 83.6026 10.5897 83.6026 11.0966C83.6026 11.6035 83.7039 12.0496 83.9067 12.4348C84.1196 12.8099 84.3934 13.0989 84.7279 13.3016C85.0727 13.5044 85.4377 13.6058 85.8229 13.6058C86.2184 13.6058 86.5884 13.5095 86.9331 13.3168C87.2778 13.1141 87.5516 12.8302 87.7544 12.4653C87.9571 12.0901 88.0585 11.6441 88.0585 11.127Z" fill="white"/>
<path d="M91.7349 11.127C91.7349 10.2552 91.9123 9.49484 92.2671 8.84601C92.622 8.18704 93.1137 7.68015 93.7423 7.32532C94.3709 6.96035 95.0908 6.77787 95.9019 6.77787C96.9462 6.77787 97.808 7.04146 98.4873 7.56863C99.1767 8.08566 99.638 8.8156 99.8712 9.75842H97.5748C97.4531 9.39346 97.2453 9.1096 96.9512 8.90684C96.6674 8.69394 96.3125 8.58749 95.8867 8.58749C95.2783 8.58749 94.7967 8.81053 94.4419 9.2566C94.087 9.69253 93.9096 10.316 93.9096 11.127C93.9096 11.9279 94.087 12.5514 94.4419 12.9975C94.7967 13.4334 95.2783 13.6514 95.8867 13.6514C96.7485 13.6514 97.3112 13.2661 97.5748 12.4957H99.8712C99.638 13.4081 99.1767 14.1329 98.4873 14.6702C97.7978 15.2076 96.936 15.4762 95.9019 15.4762C95.0908 15.4762 94.3709 15.2988 93.7423 14.944C93.1137 14.579 92.622 14.0721 92.2671 13.4233C91.9123 12.7643 91.7349 11.9989 91.7349 11.127Z" fill="white"/>
<path d="M109.263 10.9446C109.263 11.2487 109.243 11.5224 109.202 11.7657H103.043C103.094 12.374 103.307 12.8505 103.682 13.1952C104.057 13.5399 104.518 13.7122 105.066 13.7122C105.857 13.7122 106.419 13.3726 106.754 12.6934H109.05C108.807 13.5044 108.341 14.1735 107.651 14.7007C106.962 15.2177 106.115 15.4762 105.111 15.4762C104.3 15.4762 103.57 15.2988 102.921 14.944C102.283 14.579 101.781 14.067 101.416 13.4081C101.061 12.7491 100.883 11.9888 100.883 11.127C100.883 10.2552 101.061 9.48977 101.416 8.8308C101.771 8.17184 102.267 7.66494 102.906 7.31011C103.545 6.95529 104.28 6.77787 105.111 6.77787C105.912 6.77787 106.627 6.95022 107.256 7.29491C107.894 7.6396 108.386 8.13129 108.731 8.76998C109.086 9.39853 109.263 10.1234 109.263 10.9446ZM107.058 10.3363C107.048 9.78884 106.85 9.35291 106.465 9.02849C106.08 8.69394 105.608 8.52667 105.051 8.52667C104.523 8.52667 104.077 8.68887 103.712 9.01329C103.357 9.32756 103.139 9.76856 103.058 10.3363H107.058Z" fill="white"/>
</svg>
